PathFileType	4	(X/Y/Z)	C3D_Data\SPM_data\ik.trc
DataRate	CameraRate	NumFrames	NumMarkers	Units	OrigDataRate	OrigDataStartFrame	OrigNumFrames
120.000000	120.000000	4	51	mm	120.000000	99	132
Frame#	Time	Sternum			Neck			RShoulder			LShoulder			Xiphoid			Thoracic			RAsis			LAsis			RPsis			LPsis			Lumbar			RElbow			RWrist			RRadius			RUlna			LElbow			LWrist			LUlna			LRadius			LThighSuperior			LThighInferior			LThighLateral			LPatella			LShankSuperior			LShankInferior			LShankLateral			RThighSuperior			RThighInferior			RThighLateral			RPatella			RShankSuperior			RShankInferior			RShankLateral			RHeel			RToe			RMidfootLateral			RHindfoot			LHeel			LToe			LMidfootMedial			LMidfootLateral			LHindfoot			LMidfootSuperior			LToeMedial			LToeLateral			Oglobal			Sacral			Xglobal			Yglobal			Zglobal			RMidfootSuperior			
		X1	Y1	Z1	X2	Y2	Z2	X3	Y3	Z3	X4	Y4	Z4	X5	Y5	Z5	X6	Y6	Z6	X7	Y7	Z7	X8	Y8	Z8	X9	Y9	Z9	X10	Y10	Z10	X11	Y11	Z11	X12	Y12	Z12	X13	Y13	Z13	X14	Y14	Z14	X15	Y15	Z15	X16	Y16	Z16	X17	Y17	Z17	X18	Y18	Z18	X19	Y19	Z19	X20	Y20	Z20	X21	Y21	Z21	X22	Y22	Z22	X23	Y23	Z23	X24	Y24	Z24	X25	Y25	Z25	X26	Y26	Z26	X27	Y27	Z27	X28	Y28	Z28	X29	Y29	Z29	X30	Y30	Z30	X31	Y31	Z31	X32	Y32	Z32	X33	Y33	Z33	X34	Y34	Z34	X35	Y35	Z35	X36	Y36	Z36	X37	Y37	Z37	X38	Y38	Z38	X39	Y39	Z39	X40	Y40	Z40	X41	Y41	Z41	X42	Y42	Z42	X43	Y43	Z43	X44	Y44	Z44	X45	Y45	Z45	X46	Y46	Z46	X47	Y47	Z47	X48	Y48	Z48	X49	Y49	Z49	X50	Y50	Z50	X51	Y51	Z51	

100	0.8250000000000002	1009.341674804688	1446.337646484375	194.1183319091797	846.5377807617188	1544.894897460938	205.2876892089844	896.3576049804688	1528.388061523438	362.9989929199219	873.7224731445313	1538.042602539063	64.29062652587892	1044.010620117188	1287.09912109375	196.1086120605469	766.6264038085938	1326.526489257813	208.9847717285156	968.1300659179688	1028.07568359375	337.0150146484376	967.668212890625	1013.772583007813	63.53848266601568	777.0452880859375	1044.310791015625	257.9272766113282	771.531005859375	1035.010864257813	154.9010467529297	783.1953735351563	1142.206787109375	203.9497985839844	848.5455932617188	1193.435668945313	459.1843261718751	967.0622558593749	950.1671752929688	494.3004455566407	992.830810546875	946.6209716796875	447.8983154296876	925.2379150390624	930.9064331054688	489.9306640625001	834.4013061523438	1198.435913085938	-47.73010635375974	931.6400146484375	956.5493774414063	-114.6250381469726	893.6829223632813	943.7340087890625	-91.45264434814447	970.504150390625	954.6011962890625	-83.55436706542963	937.9633178710938	842.03564453125	12.27684307098395	1021.177429199219	623.1326904296875	26.36943244934091	1070.585693359375	742.69482421875	73.87171173095712	1114.271240234375	526.6746826171875	85.34271240234386	951.1400756835938	427.4205322265625	26.23872184753427	806.0878295898438	295.9650573730469	64.47351837158212	905.9653930664063	337.8105163574219	95.7437744140626	920.5385131835938	823.80419921875	379.8052673339844	943.7254028320313	587.5352783203125	341.8948974609376	1019.380004882813	748.0313110351563	306.6884765625001	1018.771789550781	520.261962890625	279.1638488769532	922.2103271484375	428.0811767578125	343.183074951172	898.5100708007813	176.9727325439453	295.5917968750001	960.0513305664063	301.3218994140625	257.9990844726564	799.5223999023438	67.96055603027345	240.4525909423829	1117.005249023438	45.0031089782715	240.009246826172	1017.458129882813	29.57459068298342	311.6068420410157	962.7520141601563	31.2385997772217	303.5995483398439	658.2652587890625	254.9603881835938	125.9950103759766	900.0037841796875	62.19322586059571	67.72441864013683	813.0753173828125	98.41484832763673	137.0298461914064	795.83984375	102.3460235595703	22.72609138488778	755.8291015625	131.4329528808594	39.44956588745126	828.9432983398438	164.7075042724609	87.82314300537118	847.6249389648438	74.33287048339845	125.6466674804688	837.2905883789063	84.44515991210938	22.63994979858408	0	0	0	774.2881469726563	1039.660888671875	206.4141693115235	-200	0	-2.449293598294706e-14	-2.449293598294706e-14	1.224646799147353e-14	200	1.499759782661858e-30	200	-1.224646799147353e-14	nan	nan	nan	
101	0.8333333333333335	1017.747131347656	1447.161865234375	194.6560974121094	855.1571655273438	1545.759521484375	205.7980194091797	905.0247802734375	1529.4619140625	363.4283142089844	882.1014404296875	1538.661499023438	64.7477264404297	1052.376953125	1287.91357421875	196.6103820800782	774.9531860351563	1327.32421875	210.0325012207031	976.4514770507813	1028.680541992188	337.6741027832032	975.8563232421875	1015.409729003906	64.09191894531256	785.3187255859375	1045.121704101563	258.7394714355469	779.6860961914063	1035.948120117188	155.5482635498047	791.312744140625	1143.10009765625	205.115463256836	859.1431274414063	1194.298461914063	460.3320007324219	981.8092651367186	953.060302734375	495.2777709960938	1007.675964355469	950.0183715820313	449.1428222656251	940.4980468749999	933.1641235351563	491.1148376464844	838.7694091796875	1199.273071289063	-45.86132431030271	932.0075073242188	955.901123046875	-113.0401763916015	894.1741333007813	943.6058959960938	-89.31672668457026	971.2384643554688	953.2428588867188	-82.39351654052729	947.6640625	843.5682983398438	12.24502277374274	1034.238525390625	626.3976440429688	26.19859313964853	1081.697387695313	746.4526977539063	73.71220397949227	1129.029907226563	531.5892944335938	85.20588684082043	968.6786499023438	428.7179260253906	26.37953567504892	828.05517578125	291.9799499511719	64.81481170654305	925.8533935546875	336.7521362304688	95.76445007324229	926.9818115234375	823.9680786132813	380.2225036621094	947.16943359375	587.5418701171875	342.1702880859376	1024.73291015625	747.4822998046875	306.6278381347657	1021.114685058594	519.51123046875	279.2121276855469	923.8977661132813	428.1943054199219	343.2161254882814	898.905029296875	177.1599426269532	295.6054992675782	961.3529052734375	301.2330627441406	258.3748168945314	799.2406616210938	68.62178039550783	240.948959350586	1117.1064453125	44.94380187988283	240.0358734130861	1017.468322753906	29.56749534606935	311.6412048339845	962.8609619140625	31.30117797851564	303.5972290039064	681.4564819335938	245.4571075439453	126.0857849121094	930.7634887695313	62.45349121093751	69.4346160888673	841.314208984375	95.40183258056642	137.9867248535157	824.6513671875	98.59628295898438	23.28851699829111	783.2615356445313	127.3249893188477	39.63866424560555	854.6387329101563	162.3428039550781	88.60206604003915	877.303466796875	72.57752990722658	126.7533111572267	867.70166015625	82.0643310546875	23.61628723144542	0	0	0	782.5023803710938	1040.534912109375	207.1438598632813	-200	0	-2.449293598294706e-14	-2.449293598294706e-14	1.224646799147353e-14	200	1.499759782661858e-30	200	-1.224646799147353e-14	nan	nan	nan	
102	0.8416666666666668	1026.26416015625	1447.919555664063	195.2342529296875	863.78857421875	1546.578125	206.4082641601563	913.6937255859375	1530.435668945313	363.880615234375	890.6089477539063	1539.288330078125	65.1785125732422	1060.742309570313	1288.555053710938	197.2628479003907	783.3416137695313	1328.319213867188	210.9582672119141	984.4679565429688	1029.33251953125	338.2732849121094	983.9667358398438	1016.500244140625	64.71887969970709	793.3727416992188	1045.894165039063	259.2757263183594	787.7874755859375	1037.044677734375	156.1506805419922	799.4210815429688	1144.035278320313	205.8547668457032	869.6195068359375	1195.028198242188	461.4089965820313	996.4193725585936	956.0283813476563	496.5965576171876	1022.391174316406	953.1314086914063	450.0832519531251	955.5800781249999	935.6868286132813	492.1361083984376	843.2603149414063	1199.913818359375	-43.81779479980465	932.4706420898438	955.17138671875	-111.2161026000976	894.9009399414063	943.5198364257813	-86.83570098876947	972.2880859375	952.5208129882813	-81.06059265136713	958.0347900390625	844.6361083984375	13.17034053802497	1047.022216796875	629.6771850585938	26.02697372436532	1092.727661132813	750.3040161132813	73.89626312255868	1143.7001953125	536.4767456054688	85.67333984375011	986.1321411132813	429.7130126953125	26.39146041870127	850.45703125	287.6226806640625	65.16746520996102	947.6830444335938	336.7702941894531	97.06576538085947	933.1636352539063	824.06494140625	380.5338134765626	950.3518676757813	587.4813842773438	342.3396911621094	1030.00634765625	746.977783203125	306.6148376464844	1023.362182617188	518.8389282226563	279.2146606445313	925.70166015625	428.3257446289063	343.264862060547	899.3624267578125	177.3422088623047	295.6608886718751	962.8373413085938	301.3771667480469	258.6407165527345	799.3160400390625	68.94435119628908	241.1281127929688	1117.201782226563	44.84444808959962	240.1203460693361	1017.583740234375	29.54936981201174	311.733367919922	963.28173828125	31.2378616333008	303.6321105957032	705.1878051757813	234.7744750976563	126.0744171142579	961.6199951171875	62.61068725585938	70.78256988525402	871.1510009765625	91.88314819335939	138.2614593505861	854.3584594726563	94.5537109375	24.11012268066416	811.5933227539063	121.9052581787109	40.15617752075205	881.3887939453125	159.4443511962891	89.32904052734385	907.4440307617188	70.68334197998048	127.7536392211915	898.126953125	79.68797302246094	24.54729652404796	0	0	0	790.580078125	1041.469482421875	207.7131958007813	-200	0	-2.449293598294706e-14	-2.449293598294706e-14	1.224646799147353e-14	200	1.499759782661858e-30	200	-1.224646799147353e-14	nan	nan	nan	
103	0.8500000000000002	1034.888916015625	1448.507446289063	195.7835540771485	872.4338989257813	1547.338256835938	206.9573516845703	922.3624877929688	1531.36962890625	364.3896179199219	899.0851440429688	1539.630004882813	65.77724456787111	1069.218872070313	1289.341430664063	198.0748748779297	791.6243286132813	1329.076782226563	211.8873443603516	992.3661499023438	1029.934448242188	338.9182128906251	992.0025634765625	1017.584350585938	65.28559112548835	801.323974609375	1046.612670898438	259.8166809082032	795.8074340820313	1037.991821289063	156.7129364013672	807.3873291015625	1144.872680664063	206.5820770263672	880.049560546875	1195.648315429688	462.6049194335938	1011.235168457031	958.8746337890625	497.6322021484376	1037.581176757813	956.877197265625	451.6498718261719	970.8026733398436	937.39306640625	493.1361083984376	847.632568359375	1200.640869140625	-41.84987640380856	932.8546142578125	954.7106323242188	-109.7901611328124	895.6149291992188	943.5706176757813	-84.01446533203119	972.978759765625	951.3863525390625	-80.27600860595697	967.34375	846.0223999023438	13.41308021545417	1059.417602539063	632.5693359375	26.27273750305185	1103.482421875	753.9207763671875	74.16334533691416	1157.77587890625	541.4657592773438	85.83196258544933	1003.501281738281	430.3916015625	26.27849769592295	873.0350952148438	282.9498901367188	65.63054656982432	971.726318359375	337.7172546386719	99.13446044921885	939.2218627929688	824.2305908203125	380.8583068847657	953.4105834960938	587.48974609375	342.5223083496094	1035.603637695313	746.899658203125	307.0407714843751	1025.545288085938	518.233642578125	279.1930236816407	927.4540405273438	428.4508056640625	343.3220214843751	899.8909301757813	177.513427734375	295.6831665039064	964.0695190429688	301.3435668945313	258.7264404296876	800.1827392578125	68.7133026123047	241.1531677246095	1117.367553710938	44.77479553222658	240.2820892333986	1017.517944335938	29.53762054443361	311.7519836425782	963.680908203125	31.2199287414551	303.5960693359376	728.5826416015625	224.4838256835938	125.6667480468751	992.4476928710938	62.82640457153321	71.75730133056653	901.3551025390625	88.53731536865236	138.8706359863282	884.318115234375	90.67279052734375	24.56403160095225	840.3841552734375	115.932487487793	40.4538116455079	908.4915161132813	156.4027252197266	89.94005584716807	937.9778442382813	68.84204101562501	128.7024230957032	928.3831176757813	77.52899932861328	25.49429321289074	0	0	0	798.565673828125	1042.30224609375	208.2648010253907	-200	0	-2.449293598294706e-14	-2.449293598294706e-14	1.224646799147353e-14	200	1.499759782661858e-30	200	-1.224646799147353e-14	nan	nan	nan	
